# xmcd
#
# Track frame offsets:
#	150
#	11940
#	22875
#	32245
#	46452
#	59403
#	72697
#	83960
#	95714
#	107259
#	118537
#	132993
#
# Disc length: 1905 seconds
#
# Revision: 0
# Processed by: cddbd v1.5.1PL0 Copyright (c) Steve Scherf et al.
# Submitted via: dBpowerAMP V4.0
#
DISCID=a6076f0c
DTITLE=Conway Twitty - Sings
DYEAR=1966
DGENRE=
TTITLE0=Ribbon Of Darkness
TTITLE1=Green, Green, Grass Of Home
TTITLE2=Wine
TTITLE3=The Other Woman
TTITLE4=Together Forever
TTITLE5=Truck Drivin Man
TTITLE6=That Kind Of Girl
TTITLE7=I'll Have Another Cup Of Coffee Then I'll Go
TTITLE8=The Tips Of My Fingers
TTITLE9=Guess My Eyes Were Bigger Than My Heart
TTITLE10=That's What It's Like To Be Lonesome
TTITLE11=Honky Tonk Man
EXTD=
EXTT0=
EXTT1=
EXTT2=
EXTT3=
EXTT4=
EXTT5=
EXTT6=
EXTT7=
EXTT8=
EXTT9=
EXTT10=
EXTT11=
PLAYORDER=
